<?xml version="1.0" encoding="UTF-8" standalone="no"?>
<svg
   xmlns:dc="http://purl.org/dc/elements/1.1/"
   xmlns:cc="http://creativecommons.org/ns#"
   xmlns:rdf="http://www.w3.org/1999/02/22-rdf-syntax-ns#"
   xmlns:svg="http://www.w3.org/2000/svg"
   xmlns="http://www.w3.org/2000/svg"
   xmlns:sodipodi="http://sodipodi.sourceforge.net/DTD/sodipodi-0.dtd"
   xmlns:inkscape="http://www.inkscape.org/namespaces/inkscape"
   version="1.1"
   id="hbo-max"
   x="0px"
   y="0px"
   viewBox="0 0 893.89502 502.81601"
   xml:space="preserve"
   sodipodi:docname="HBO Max.svg"
   inkscape:version="0.92.2 5c3e80d, 2017-08-06"
   width="893.89502"
   height="502.81601"><metadata
     id="metadata43"><rdf:RDF><cc:Work
         rdf:about=""><dc:format>image/svg+xml</dc:format><dc:type
           rdf:resource="http://purl.org/dc/dcmitype/StillImage" /><dc:title></dc:title></cc:Work></rdf:RDF></metadata><defs
     id="defs41" /><sodipodi:namedview
     pagecolor="#ffffff"
     bordercolor="#666666"
     borderopacity="1"
     objecttolerance="10"
     gridtolerance="10"
     guidetolerance="10"
     inkscape:pageopacity="0"
     inkscape:pageshadow="2"
     inkscape:window-width="1680"
     inkscape:window-height="931"
     id="namedview39"
     showgrid="false"
     inkscape:zoom="0.31377863"
     inkscape:cx="-426.05215"
     inkscape:cy="262.22445"
     inkscape:window-x="0"
     inkscape:window-y="1"
     inkscape:window-maximized="1"
     inkscape:current-layer="hbo-max"
     fit-margin-top="0"
     fit-margin-left="0"
     fit-margin-right="0"
     fit-margin-bottom="0" /><linearGradient
     id="grad1"
     gradientUnits="userSpaceOnUse"
     x1="-6.3309999"
     y1="50.158501"
     x2="600.5434"
     y2="51.9142"
     gradientTransform="matrix(1,0,0,-1,124.9771,360.59155)"><stop
       offset="0"
       style="stop-color:#2531C8"
       id="stop2" /><stop
       offset="0.2646"
       style="stop-color:#009EFF"
       id="stop4" /><stop
       offset="0.4123"
       style="stop-color:#6746A5"
       id="stop6" /><stop
       offset="0.695"
       style="stop-color:#875BB0"
       id="stop8" /><stop
       offset="0.8573"
       style="stop-color:#9D3DA5"
       id="stop10" /><stop
       offset="0.9834"
       style="stop-color:#FF002F"
       id="stop12" /></linearGradient><rect
     style="fill:#000000;fill-opacity:1;fill-rule:evenodd;stroke-width:1.07284224"
     id="rect850"
     width="893.89508"
     height="502.81601"
     x="0"
     y="-9.5214846e-06"
     ry="0" /><path
     d="m 718.2771,354.59155 -76.3,-45.6 76.3,-45.6 c 6.6,-3.9 8.7,-12.4 4.8,-19 -3.9,-6.6 -12.4,-8.7 -19,-4.8 l -89,53.3 -89.1,-53.3 c -6.6,-3.9 -15,-1.8 -19,4.8 -3.9,6.6 -1.8,15 4.8,19 l 76.3,45.6 -76.3,45.6 c -6.6,3.9 -8.7,12.4 -4.8,19 2.6,4.3 7.2,6.7 11.9,6.7 2.4,0 4.9,-0.6 7.1,-2 l 89,-53.3 89,53.3 c 2.2,1.3 4.7,2 7.1,2 4.7,0 9.3,-2.4 11.9,-6.7 4,-6.6 1.8,-15.1 -4.7,-19 z"
     id="path15"
     style="fill:url(#grad1)"
     inkscape:connector-curvature="0" /><path
     d="m 281.2771,178.29155 c 6.5,0 11.8,-5.3 11.8,-11.8 0,-6.5 -5.3,-11.8 -11.8,-11.8 -6.5,0 -11.8,5.3 -11.8,11.8 0,6.5 5.3,11.8 11.8,11.8 z"
     id="path17"
     style="clip-rule:evenodd;fill:#ffffff;fill-rule:evenodd"
     inkscape:connector-curvature="0" /><path
     d="m 281.4771,135.49155 c -13.5,0 -25,8.7 -29.2,20.8 0.2,-1.2 0.2,-2.5 0.2,-3.9 0,-4.5 -2.6,-9.4 -6.3,-12 -3.4,-2.5 -6.9,-4 -11.1,-4 h -26.8 v 61.1 h 25.1 c 5,0 9.2,-1.8 13.5,-4.9 3.9,-2.8 6.4,-7.8 6.4,-12.5 0,-0.2 0,-0.4 0,-0.7 4.9,10.7 15.7,18.1 28.1,18.1 17.1,0 31,-13.9 31,-31 0,-17.2 -13.8,-31 -30.9,-31 z m -57.5,14.1 h 6.6 c 3.2,0 6.6,0.6 6.6,4.6 0.2,3.7 -2,5.9 -6.4,5.9 h -6.7 z m 12.1,32.8 c -1.4,1.1 -3.2,1 -4.9,1 h -7.3 v -11.1 h 6.7 c 4,0 7.5,1 7.6,5.8 0,1.4 -0.9,3.4 -2.1,4.3 z m 14.8,-11.7 c -1.2,-1.6 -2.9,-3.1 -5.5,-4.5 2.9,-1.5 4.7,-3.3 5.8,-5.7 -0.4,2 -0.6,4 -0.6,6 0,1.4 0.1,2.8 0.3,4.2 z m 30.4,11.9 c -8.9,0 -16.1,-7.2 -16.1,-16.1 0,-8.9 7.2,-16.1 16.1,-16.1 8.9,0 16.1,7.2 16.1,16.1 0,8.9 -7.2,16.1 -16.1,16.1 z"
     id="path19"
     style="clip-rule:evenodd;fill:#ffffff;fill-rule:evenodd"
     inkscape:connector-curvature="0" /><polygon
     points="79.9,92.9 79.9,31.6 64.1,31.6 64.1,54.2 51.5,54.2 51.5,31.6 35.9,31.6 35.9,92.9 51.4,92.9 51.4,69 64.1,69 64.1,92.9 "
     id="polygon21"
     style="clip-rule:evenodd;fill:#ffffff;fill-rule:evenodd"
     transform="translate(124.9771,104.59155)" /><linearGradient
     id="grad2"
     gradientUnits="userSpaceOnUse"
     x1="-46.813"
     y1="213.86"
     x2="352.45499"
     y2="-33.043701"
     gradientTransform="matrix(1,0,0,-1,124.9771,360.59155)"><stop
       offset="0.1672"
       style="stop-color:#34229B"
       id="stop23" /><stop
       offset="0.355"
       style="stop-color:#4585C2"
       id="stop25" /><stop
       offset="0.6222"
       style="stop-color:#8459B0"
       id="stop27" /><stop
       offset="1"
       style="stop-color:#875BB0"
       id="stop29" /></linearGradient><path
     d="m 326.3771,227.99155 h -183.9 c -9.7,0 -17.5,-7.9 -17.5,-17.5 v -88.1 c 0,-9.6 7.9,-17.5 17.5,-17.5 h 183.9 c 9.7,0 17.5,7.9 17.5,17.5 v 88.1 c 0.1,9.7 -7.8,17.5 -17.5,17.5 z m -183.9,-117.7 c -6.7,0 -12.2,5.5 -12.2,12.2 v 88.1 c 0,6.7 5.5,12.2 12.2,12.2 h 183.9 c 6.7,0 12.2,-5.5 12.2,-12.2 v -88.2 c 0,-6.7 -5.5,-12.2 -12.2,-12.2 h -183.9 z m 201.5,189 v 67.2 c 0,7.6 -6.2,13.8 -13.8,13.8 -7.6,0 -13.8,-6.2 -13.8,-13.8 v -67.2 c 0,-18.8 -15.3,-34 -34,-34 -18.7,0 -34,15.3 -34,34 v 67.2 c 0,7.6 -6.2,13.8 -13.8,13.8 -7.6,0 -13.8,-6.2 -13.8,-13.8 v -67.2 c 0,-18.8 -15.3,-34 -34,-34 -18.7,0 -34,15.3 -34,34 v 67.2 c 0,7.6 -6.2,13.8 -13.8,13.8 -7.6,0 -14,-6.2 -14,-13.8 v -67.2 c 0,-34 27.7,-61.7 61.7,-61.7 19.3,0 36.5,8.9 47.8,22.8 11.3,-13.9 28.6,-22.8 47.8,-22.8 34.1,0 61.7,27.7 61.7,61.7 z m 80.6,-61.7 c 0,0 -0.1,0 0,0 z m 0,142.7 v 0 0 c -0.1,0 0,0 0,0 z m 71.3,-128.8 v 115 c 0,7.6 -6.2,13.8 -13.8,13.8 -7.6,0 -13.8,-6.2 -13.8,-13.8 v -3.4 c -1,1.3 -5.1,6.3 -13.5,10.6 -7.9,3.7 -16.6,6 -25.7,6.6 -0.4,0 -0.9,0.1 -1.3,0.1 -0.8,0 -1.6,0.1 -2.3,0.1 -0.3,0 -0.6,0 -0.9,0 -39.3,0 -71.2,-32 -71.2,-71.3 0,-39.3 31.9,-71.3 71.2,-71.3 0.3,0 0.6,0 0.9,0 0.8,0 1.6,0 2.4,0.1 0.4,0 0.8,0 1.3,0.1 9.2,0.6 18,2.9 25.9,6.6 8.3,4.3 12.4,9.2 13.3,10.5 v -3.4 c 0,-7.6 6.2,-13.8 13.8,-13.8 7.5,-0.4 13.7,5.8 13.7,13.5 z m -27.7,57.5 c 0,-24.1 -19.6,-43.7 -43.7,-43.7 -24.1,0 -43.7,19.6 -43.7,43.7 0,24.1 19.6,43.7 43.7,43.7 24.1,0 43.7,-19.7 43.7,-43.7 z"
     id="path32"
     style="fill:url(#grad2)"
     inkscape:connector-curvature="0" /></svg>